<svg id="svg" version="1.1" width="400" height="400" viewBox="0 0 400 400" xmlns="http://www.w3.org/2000/svg" xmlns:xlink="http://www.w3.org/1999/xlink" ><g id="svgg"><path id="path0" d="" stroke="none" fill="#5555ff" fill-rule="evenodd"></path><path id="path1" d="" stroke="none" fill="#339999" fill-rule="evenodd"></path><path id="path2" d="" stroke="none" fill="#558ec6" fill-rule="evenodd"></path><path id="path3" d="M168.151 51.422 L 168.100 68.245 164.500 69.225 C 153.152 72.316,141.472 77.191,131.800 82.874 L 129.300 84.342 117.350 72.422 L 105.399 60.501 82.950 82.950 L 60.501 105.399 72.446 117.350 L 84.391 129.300 82.965 131.700 C 77.344 141.157,72.338 153.123,69.201 164.600 L 68.245 168.100 51.422 168.151 L 34.600 168.202 34.600 200.000 L 34.600 231.798 51.422 231.849 L 68.243 231.900 69.313 235.800 C 72.517 247.488,78.658 261.887,83.869 269.932 L 84.366 270.700 72.434 282.650 L 60.501 294.601 82.950 317.050 L 105.399 339.499 117.350 327.562 L 129.300 315.625 132.600 317.537 C 142.108 323.046,153.073 327.597,164.300 330.693 C 166.170 331.208,167.813 331.666,167.950 331.709 C 168.147 331.771,168.200 335.324,168.200 348.594 L 168.200 365.400 199.999 365.400 L 231.798 365.400 231.849 348.578 L 231.900 331.755 235.500 330.775 C 247.272 327.569,261.837 321.374,269.932 316.131 L 270.700 315.634 282.650 327.566 L 294.601 339.499 317.050 317.050 L 339.499 294.601 327.551 282.650 L 315.602 270.700 316.327 269.500 C 322.390 259.462,327.581 247.231,330.785 235.432 L 331.745 231.900 348.572 231.849 L 365.400 231.798 365.400 200.000 L 365.400 168.202 348.578 168.151 L 331.757 168.100 330.687 164.200 C 327.619 153.011,323.071 142.076,317.462 132.400 L 315.664 129.300 327.582 117.350 L 339.499 105.399 317.050 82.950 L 294.601 60.501 282.650 72.440 L 270.700 84.379 267.600 82.581 C 257.629 76.796,245.231 71.711,234.385 68.958 L 231.800 68.302 231.800 51.451 L 231.800 34.600 200.001 34.600 L 168.202 34.600 168.151 51.422 M208.400 125.095 C 271.421 132.383,297.938 209.705,252.573 253.901 C 209.575 295.791,137.193 272.930,125.923 213.900 C 116.485 164.460,158.413 119.314,208.400 125.095 " stroke="none" fill="#72a7cf" fill-rule="evenodd"></path><path id="path4" d="" stroke="none" fill="#00ffff" fill-rule="evenodd"></path></g></svg>